<mxfile host="app.diagrams.net" modified="2024-03-15T13:10:09.670Z" agent="Mozilla/5.0 (Windows NT 10.0; Win64; x64) AppleWebKit/537.36 (KHTML, like Gecko) Chrome/122.0.0.0 Safari/537.36" version="24.0.7" etag="ZADVqXtin0hXpWHf6qKJ" type="github">
  <diagram name="Page-1" id="tdFnrzZZlnrE13n6Qn_T">
    <mxGraphModel>
      <root>
        <mxCell id="0" />
        <mxCell id="1" parent="0" />
      </root>
    </mxGraphModel>
  </diagram>
</mxfile>
